<svg
  width="214"
  height="19"
  viewBox="0 0 214 19"
  fill="none"
  xmlns="http://www.w3.org/2000/svg"
>
  <path
    d="M4.13603 8.03109H4.90329C5.21181 8.03109 5.46756 7.9905 5.67054 7.90931C5.87352 7.82 6.04808 7.68197 6.19422 7.49524L11.0535 1.34503C11.2565 1.08522 11.4676 0.906601 11.6868 0.809173C11.9141 0.703625 12.1983 0.650851 12.5393 0.650851H15.3647L9.43373 7.9702C9.24699 8.19754 9.06838 8.38833 8.89787 8.5426C8.72737 8.69686 8.54469 8.82271 8.34984 8.92013C8.61777 9.01756 8.85728 9.15559 9.06838 9.33421C9.28759 9.51283 9.49869 9.74016 9.70166 10.0162L15.8153 18.2611H12.9168C12.5271 18.2611 12.2348 18.2084 12.04 18.1028C11.8532 17.9891 11.6949 17.8268 11.565 17.6157L6.58394 11.1123C6.42155 10.9012 6.23888 10.751 6.0359 10.6617C5.83292 10.5642 5.54469 10.5155 5.17122 10.5155H4.13603V18.2611H0.859985V0.638673H4.13603V8.03109Z"
    fill="currentColor"
  />
  <path
    d="M19.4748 0.650851C19.621 0.650851 19.7427 0.658969 19.8402 0.675207C19.9376 0.683327 20.0229 0.707684 20.0959 0.74828C20.1771 0.780757 20.2542 0.833531 20.3273 0.906602C20.4004 0.971555 20.4816 1.06086 20.5709 1.17453L29.8145 12.9513C29.782 12.6671 29.7576 12.391 29.7414 12.1231C29.7333 11.8471 29.7292 11.5913 29.7292 11.3559V0.650851H32.6155V18.2611H30.9227C30.6629 18.2611 30.4478 18.2205 30.2773 18.1393C30.1067 18.0582 29.9403 17.912 29.7779 17.7009L20.5709 5.97291C20.5952 6.23272 20.6115 6.49253 20.6196 6.75234C20.6358 7.00403 20.644 7.23542 20.644 7.44652V18.2611H17.7576V0.650851H19.4748Z"
    fill="currentColor"
  />
  <path
    d="M53.06 9.45599C53.06 10.7469 52.8449 11.9445 52.4146 13.0487C51.9842 14.1448 51.3794 15.0947 50.5999 15.8985C49.8205 16.7023 48.8828 17.3315 47.7867 17.7862C46.6906 18.2327 45.4768 18.456 44.1453 18.456C42.8137 18.456 41.5959 18.2327 40.4917 17.7862C39.3956 17.3315 38.4538 16.7023 37.6662 15.8985C36.8868 15.0947 36.2819 14.1448 35.8516 13.0487C35.4213 11.9445 35.2062 10.7469 35.2062 9.45599C35.2062 8.16506 35.4213 6.97155 35.8516 5.87548C36.2819 4.77128 36.8868 3.81729 37.6662 3.0135C38.4538 2.20971 39.3956 1.58455 40.4917 1.138C41.5959 0.683328 42.8137 0.455994 44.1453 0.455994C45.4768 0.455994 46.6906 0.683328 47.7867 1.138C48.8828 1.59266 49.8205 2.22189 50.5999 3.02568C51.3794 3.82135 51.9842 4.77128 52.4146 5.87548C52.8449 6.97155 53.06 8.16506 53.06 9.45599ZM49.6987 9.45599C49.6987 8.48982 49.5688 7.62514 49.309 6.86195C49.0573 6.09063 48.692 5.43705 48.2129 4.90119C47.7339 4.36533 47.1493 3.95532 46.4592 3.67115C45.7772 3.38698 45.0059 3.2449 44.1453 3.2449C43.2846 3.2449 42.5093 3.38698 41.8192 3.67115C41.129 3.95532 40.5404 4.36533 40.0533 4.90119C39.5742 5.43705 39.2048 6.09063 38.945 6.86195C38.6852 7.62514 38.5553 8.48982 38.5553 9.45599C38.5553 10.4222 38.6852 11.2909 38.945 12.0622C39.2048 12.8254 39.5742 13.4749 40.0533 14.0108C40.5404 14.5385 41.129 14.9445 41.8192 15.2287C42.5093 15.5128 43.2846 15.6549 44.1453 15.6549C45.0059 15.6549 45.7772 15.5128 46.4592 15.2287C47.1493 14.9445 47.7339 14.5385 48.2129 14.0108C48.692 13.4749 49.0573 12.8254 49.309 12.0622C49.5688 11.2909 49.6987 10.4222 49.6987 9.45599Z"
    fill="currentColor"
  />
  <path
    d="M54.0174 0.650851H56.7697C57.0539 0.650851 57.2894 0.719863 57.4761 0.857888C57.671 0.987793 57.8009 1.16641 57.8658 1.39375L60.8618 11.9283C60.9348 12.1881 60.9998 12.4722 61.0566 12.7808C61.1216 13.0812 61.1825 13.4019 61.2393 13.7429C61.3043 13.4019 61.3733 13.0812 61.4463 12.7808C61.5275 12.4722 61.6128 12.1881 61.7021 11.9283L65.1608 1.39375C65.2258 1.20701 65.3516 1.03651 65.5384 0.882245C65.7332 0.727982 65.9687 0.650851 66.2447 0.650851H67.2068C67.491 0.650851 67.7264 0.719863 67.9132 0.857888C68.0999 0.987793 68.2298 1.16641 68.3029 1.39375L71.7373 11.9283C71.9159 12.4479 72.0702 13.0243 72.2001 13.6576C72.2569 13.341 72.3137 13.0365 72.3706 12.7442C72.4355 12.4519 72.5005 12.1799 72.5654 11.9283L75.5614 1.39375C75.6182 1.19077 75.744 1.01621 75.9389 0.870066C76.1338 0.723922 76.3692 0.650851 76.6453 0.650851H79.2149L73.7467 18.2611H70.7873L66.9389 6.22866C66.8902 6.0744 66.8374 5.90795 66.7806 5.72934C66.7319 5.55072 66.6831 5.35992 66.6344 5.15694C66.5857 5.35992 66.5329 5.55072 66.4761 5.72934C66.4274 5.90795 66.3787 6.0744 66.33 6.22866L62.445 18.2611H59.4856L54.0174 0.650851Z"
    fill="currentColor"
  />
  <path
    d="M84.4243 15.5575H91.4758V18.2611H81.1483V0.650851H84.4243V15.5575Z"
    fill="currentColor"
  />
  <path
    d="M104.838 0.650851V3.25707H97.0317V8.1407H103.182V10.6617H97.0317V15.6427H104.838V18.2611H93.7313V0.650851H104.838Z"
    fill="currentColor"
  />
  <path
    d="M123.307 9.45599C123.307 10.7469 123.092 11.9323 122.662 13.0121C122.232 14.092 121.627 15.0216 120.847 15.8011C120.068 16.5805 119.13 17.1854 118.034 17.6157C116.938 18.046 115.724 18.2611 114.393 18.2611H107.67V0.650851H114.393C115.724 0.650851 116.938 0.870066 118.034 1.3085C119.13 1.73881 120.068 2.34368 120.847 3.12311C121.627 3.89442 122.232 4.82 122.662 5.89984C123.092 6.97967 123.307 8.16506 123.307 9.45599ZM119.958 9.45599C119.958 8.48982 119.828 7.62514 119.569 6.86195C119.309 6.09063 118.939 5.44111 118.46 4.91337C117.981 4.37751 117.397 3.9675 116.707 3.68333C116.025 3.39916 115.253 3.25707 114.393 3.25707H110.97V15.6549H114.393C115.253 15.6549 116.025 15.5128 116.707 15.2287C117.397 14.9445 117.981 14.5385 118.46 14.0108C118.939 13.4749 119.309 12.8254 119.569 12.0622C119.828 11.2909 119.958 10.4222 119.958 9.45599Z"
    fill="currentColor"
  />
  <path
    d="M133.953 15.8498C134.692 15.8498 135.334 15.7848 135.877 15.6549C136.43 15.5169 136.953 15.3301 137.449 15.0947V11.8917H135.244C135.033 11.8917 134.867 11.8349 134.745 11.7212C134.623 11.5994 134.562 11.4533 134.562 11.2828V9.43164H140.42V16.5561C139.974 16.8809 139.507 17.1651 139.02 17.4086C138.541 17.6441 138.025 17.8389 137.473 17.9932C136.929 18.1475 136.344 18.2611 135.719 18.3342C135.094 18.4154 134.42 18.456 133.698 18.456C132.415 18.456 131.233 18.2327 130.154 17.7862C129.074 17.3396 128.14 16.7185 127.352 15.9228C126.565 15.1272 125.948 14.1772 125.501 13.073C125.063 11.9688 124.844 10.7632 124.844 9.45599C124.844 8.13258 125.059 6.91878 125.489 5.81459C125.919 4.71039 126.528 3.76046 127.316 2.96479C128.112 2.16912 129.074 1.55207 130.202 1.11364C131.331 0.675208 132.597 0.455994 134.002 0.455994C135.439 0.455994 136.681 0.671149 137.729 1.10146C138.784 1.52365 139.677 2.07575 140.408 2.75775L139.458 4.24354C139.271 4.54395 139.024 4.69415 138.715 4.69415C138.52 4.69415 138.321 4.6292 138.118 4.4993C137.859 4.34503 137.591 4.19077 137.315 4.03651C137.047 3.88224 136.746 3.74828 136.413 3.63461C136.089 3.52095 135.719 3.42758 135.305 3.3545C134.899 3.28143 134.428 3.2449 133.892 3.2449C133.024 3.2449 132.236 3.39104 131.53 3.68333C130.831 3.97561 130.235 4.39375 129.739 4.93772C129.244 5.4817 128.863 6.13529 128.595 6.89848C128.327 7.66168 128.193 8.51418 128.193 9.45599C128.193 10.4709 128.335 11.3762 128.619 12.1718C128.903 12.9594 129.301 13.6251 129.813 14.1691C130.324 14.7131 130.933 15.1312 131.639 15.4235C132.346 15.7077 133.117 15.8498 133.953 15.8498Z"
    fill="currentColor"
  />
  <path
    d="M154.575 0.650851V3.25707H146.769V8.1407H152.919V10.6617H146.769V15.6427H154.575V18.2611H143.469V0.650851H154.575Z"
    fill="currentColor"
  />
  <path
    d="M164.403 17.2625C165.913 17.2625 167.053 16.9377 167.825 16.2882C168.604 15.6306 168.994 14.709 168.994 13.5237C168.994 12.9797 168.888 12.4925 168.677 12.0622C168.474 11.6238 168.178 11.2544 167.788 10.954C167.399 10.6454 166.92 10.41 166.351 10.2476C165.783 10.0852 165.137 10.004 164.415 10.004H160.079V17.2625H164.403ZM160.079 2.01486V9.09063H163.806C164.602 9.09063 165.279 8.98915 165.84 8.78617C166.408 8.58319 166.871 8.31526 167.228 7.98238C167.593 7.6495 167.861 7.27196 168.032 6.84977C168.202 6.42758 168.288 5.99321 168.288 5.54666C168.288 4.38563 167.918 3.50877 167.179 2.91607C166.449 2.31526 165.316 2.01486 163.781 2.01486H160.079ZM163.781 1.02839C164.764 1.02839 165.616 1.12582 166.339 1.32068C167.062 1.51553 167.658 1.80376 168.129 2.18536C168.6 2.55883 168.949 3.01756 169.177 3.56154C169.404 4.10552 169.518 4.72257 169.518 5.41269C169.518 5.86736 169.436 6.30579 169.274 6.72798C169.12 7.15017 168.892 7.53989 168.592 7.89713C168.3 8.25437 167.934 8.56695 167.496 8.83488C167.066 9.09469 166.57 9.29361 166.01 9.43164C167.366 9.62649 168.405 10.0771 169.128 10.7835C169.859 11.4817 170.224 12.4032 170.224 13.548C170.224 14.2787 170.094 14.9364 169.834 15.5209C169.574 16.1055 169.197 16.6008 168.702 17.0067C168.206 17.4127 167.597 17.7253 166.875 17.9445C166.152 18.1556 165.332 18.2611 164.415 18.2611H158.825V1.02839H163.781Z"
    fill="currentColor"
  />
  <path
    d="M183.293 12.0013L179.785 3.29361C179.664 3.00944 179.546 2.66844 179.432 2.27061C179.383 2.46547 179.331 2.6522 179.274 2.83082C179.217 3.00132 179.156 3.15965 179.091 3.30579L175.584 12.0013H183.293ZM187.105 18.2611H186.143C186.029 18.2611 185.936 18.2327 185.862 18.1759C185.789 18.1109 185.733 18.0297 185.692 17.9323L183.67 12.9269H175.206L173.185 17.9323C173.152 18.0216 173.095 18.0988 173.014 18.1637C172.933 18.2287 172.835 18.2611 172.722 18.2611H171.772L178.823 1.02839H180.053L187.105 18.2611Z"
    fill="currentColor"
  />
  <path
    d="M198.328 3.12311C198.255 3.26114 198.149 3.33015 198.011 3.33015C197.906 3.33015 197.768 3.25708 197.597 3.11093C197.435 2.95667 197.211 2.79023 196.927 2.61161C196.643 2.42487 196.286 2.25437 195.856 2.10011C195.433 1.94584 194.91 1.86871 194.285 1.86871C193.659 1.86871 193.107 1.95802 192.628 2.13664C192.157 2.31526 191.76 2.55883 191.435 2.86736C191.118 3.17588 190.875 3.53312 190.704 3.93908C190.542 4.34503 190.46 4.77128 190.46 5.21783C190.46 5.80241 190.582 6.28549 190.826 6.66709C191.078 7.04869 191.406 7.37345 191.812 7.64138C192.218 7.90931 192.677 8.13664 193.188 8.32338C193.708 8.502 194.24 8.68062 194.784 8.85924C195.328 9.03786 195.856 9.23678 196.367 9.45599C196.887 9.66709 197.35 9.93502 197.755 10.2598C198.161 10.5845 198.486 10.9864 198.73 11.4655C198.981 11.9364 199.107 12.525 199.107 13.2314C199.107 13.954 198.981 14.636 198.73 15.2774C198.486 15.9107 198.129 16.4628 197.658 16.9337C197.187 17.4046 196.611 17.7781 195.929 18.0541C195.247 18.322 194.467 18.456 193.59 18.456C192.454 18.456 191.475 18.2571 190.655 17.8592C189.835 17.4533 189.117 16.9012 188.5 16.2029L188.841 15.6671C188.938 15.5453 189.052 15.4844 189.182 15.4844C189.255 15.4844 189.348 15.5331 189.462 15.6306C189.576 15.728 189.714 15.8498 189.876 15.9959C190.038 16.1339 190.233 16.2882 190.46 16.4587C190.688 16.6211 190.952 16.7753 191.252 16.9215C191.552 17.0595 191.898 17.1772 192.287 17.2747C192.677 17.3721 193.119 17.4208 193.615 17.4208C194.297 17.4208 194.906 17.3193 195.442 17.1163C195.977 16.9052 196.428 16.6211 196.793 16.2638C197.167 15.9066 197.451 15.4844 197.646 14.9973C197.841 14.502 197.938 13.9743 197.938 13.414C197.938 12.8051 197.812 12.3058 197.561 11.9161C197.317 11.5182 196.992 11.1894 196.586 10.9296C196.18 10.6617 195.718 10.4384 195.198 10.2598C194.686 10.0812 194.159 9.9066 193.615 9.7361C193.071 9.5656 192.539 9.3748 192.019 9.16371C191.508 8.95261 191.049 8.68468 190.643 8.35992C190.237 8.02704 189.908 7.61702 189.657 7.12988C189.413 6.63461 189.291 6.01756 189.291 5.27873C189.291 4.70227 189.401 4.14611 189.62 3.61026C189.839 3.0744 190.16 2.60349 190.582 2.19754C191.004 1.78346 191.524 1.45464 192.141 1.21107C192.766 0.959375 193.477 0.83353 194.272 0.83353C195.165 0.83353 195.965 0.975614 196.672 1.25978C197.386 1.54395 198.036 1.97832 198.62 2.56289L198.328 3.12311Z"
    fill="currentColor"
  />
  <path
    d="M213.348 17.226L213.324 18.2611H202.996V1.02839H213.324V2.06357H204.25V9.02974H211.801V10.0406H204.25V17.226H213.348Z"
    fill="currentColor"
    />
</svg>
